<mxfile host="Electron" agent="Mozilla/5.0 (Windows NT 10.0; Win64; x64) AppleWebKit/537.36 (KHTML, like Gecko) draw.io/27.0.2 Chrome/134.0.6998.205 Electron/35.3.0 Safari/537.36" version="27.0.2">
  <diagram name="Page-1" id="wU4wsWoz8whGe30HL5XV">
    <mxGraphModel dx="1138" dy="1391" grid="1" gridSize="10" guides="1" tooltips="1" connect="1" arrows="1" fold="1" page="1" pageScale="1" pageWidth="827" pageHeight="1169" math="0" shadow="0">
      <root>
        <mxCell id="0" />
        <mxCell id="1" parent="0" />
        <mxCell id="DJNQosZc0BLs9Sn968SO-4" style="edgeStyle=orthogonalEdgeStyle;rounded=0;orthogonalLoop=1;jettySize=auto;html=1;exitX=0.5;exitY=1;exitDx=0;exitDy=0;entryX=0.5;entryY=0;entryDx=0;entryDy=0;" edge="1" parent="1" source="DJNQosZc0BLs9Sn968SO-1" target="DJNQosZc0BLs9Sn968SO-2">
          <mxGeometry relative="1" as="geometry" />
        </mxCell>
        <mxCell id="DJNQosZc0BLs9Sn968SO-1" value="" style="ellipse;fillColor=strokeColor;html=1;" vertex="1" parent="1">
          <mxGeometry x="384" y="50" width="30" height="30" as="geometry" />
        </mxCell>
        <mxCell id="DJNQosZc0BLs9Sn968SO-5" style="edgeStyle=orthogonalEdgeStyle;rounded=0;orthogonalLoop=1;jettySize=auto;html=1;exitX=0.5;exitY=1;exitDx=0;exitDy=0;entryX=0.5;entryY=0;entryDx=0;entryDy=0;" edge="1" parent="1" source="DJNQosZc0BLs9Sn968SO-2" target="DJNQosZc0BLs9Sn968SO-3">
          <mxGeometry relative="1" as="geometry" />
        </mxCell>
        <mxCell id="DJNQosZc0BLs9Sn968SO-6" value="Incident Alert" style="edgeLabel;html=1;align=center;verticalAlign=middle;resizable=0;points=[];" vertex="1" connectable="0" parent="DJNQosZc0BLs9Sn968SO-5">
          <mxGeometry x="-0.2" y="2" relative="1" as="geometry">
            <mxPoint as="offset" />
          </mxGeometry>
        </mxCell>
        <mxCell id="DJNQosZc0BLs9Sn968SO-2" value="Standby" style="html=1;align=center;verticalAlign=top;rounded=1;absoluteArcSize=1;arcSize=10;dashed=0;whiteSpace=wrap;" vertex="1" parent="1">
          <mxGeometry x="350.5" y="160" width="97" height="30" as="geometry" />
        </mxCell>
        <mxCell id="DJNQosZc0BLs9Sn968SO-18" style="edgeStyle=orthogonalEdgeStyle;rounded=0;orthogonalLoop=1;jettySize=auto;html=1;exitX=0.5;exitY=1;exitDx=0;exitDy=0;entryX=0.5;entryY=0;entryDx=0;entryDy=0;" edge="1" parent="1" source="DJNQosZc0BLs9Sn968SO-3" target="DJNQosZc0BLs9Sn968SO-7">
          <mxGeometry relative="1" as="geometry" />
        </mxCell>
        <mxCell id="DJNQosZc0BLs9Sn968SO-19" value="Acknowledge alert" style="edgeLabel;html=1;align=center;verticalAlign=middle;resizable=0;points=[];" vertex="1" connectable="0" parent="DJNQosZc0BLs9Sn968SO-18">
          <mxGeometry x="-0.2428" y="2" relative="1" as="geometry">
            <mxPoint as="offset" />
          </mxGeometry>
        </mxCell>
        <mxCell id="DJNQosZc0BLs9Sn968SO-3" value="Alert Received" style="html=1;align=center;verticalAlign=top;rounded=1;absoluteArcSize=1;arcSize=10;dashed=0;whiteSpace=wrap;" vertex="1" parent="1">
          <mxGeometry x="344.5" y="250" width="109" height="30" as="geometry" />
        </mxCell>
        <mxCell id="DJNQosZc0BLs9Sn968SO-7" value="Initial Assessment" style="html=1;align=center;verticalAlign=top;rounded=1;absoluteArcSize=1;arcSize=10;dashed=0;whiteSpace=wrap;" vertex="1" parent="1">
          <mxGeometry x="340" y="340" width="129" height="30" as="geometry" />
        </mxCell>
        <mxCell id="DJNQosZc0BLs9Sn968SO-21" style="edgeStyle=orthogonalEdgeStyle;rounded=0;orthogonalLoop=1;jettySize=auto;html=1;exitX=0.5;exitY=1;exitDx=0;exitDy=0;exitPerimeter=0;entryX=0.75;entryY=0;entryDx=0;entryDy=0;" edge="1" parent="1" source="DJNQosZc0BLs9Sn968SO-8" target="DJNQosZc0BLs9Sn968SO-20">
          <mxGeometry relative="1" as="geometry" />
        </mxCell>
        <mxCell id="DJNQosZc0BLs9Sn968SO-22" value="Complete Response" style="edgeLabel;html=1;align=center;verticalAlign=middle;resizable=0;points=[];" vertex="1" connectable="0" parent="DJNQosZc0BLs9Sn968SO-21">
          <mxGeometry x="-0.0493" y="-2" relative="1" as="geometry">
            <mxPoint as="offset" />
          </mxGeometry>
        </mxCell>
        <mxCell id="DJNQosZc0BLs9Sn968SO-8" value="Response Coordination" style="shape=folder;align=center;verticalAlign=middle;fontStyle=0;tabWidth=100;tabHeight=30;tabPosition=left;html=1;boundedLbl=1;labelInHeader=1;rounded=1;absoluteArcSize=1;arcSize=10;whiteSpace=wrap;" vertex="1" parent="1">
          <mxGeometry x="550" y="300" width="190" height="250" as="geometry" />
        </mxCell>
        <mxCell id="DJNQosZc0BLs9Sn968SO-9" style="edgeStyle=orthogonalEdgeStyle;rounded=0;orthogonalLoop=1;jettySize=auto;html=1;exitX=1;exitY=0.5;exitDx=0;exitDy=0;entryX=-0.011;entryY=0.218;entryDx=0;entryDy=0;entryPerimeter=0;" edge="1" parent="1" source="DJNQosZc0BLs9Sn968SO-7" target="DJNQosZc0BLs9Sn968SO-8">
          <mxGeometry relative="1" as="geometry" />
        </mxCell>
        <mxCell id="DJNQosZc0BLs9Sn968SO-15" style="edgeStyle=orthogonalEdgeStyle;rounded=0;orthogonalLoop=1;jettySize=auto;html=1;exitX=1;exitY=0.5;exitDx=0;exitDy=0;entryX=0.5;entryY=0;entryDx=0;entryDy=0;" edge="1" parent="1" source="DJNQosZc0BLs9Sn968SO-10" target="DJNQosZc0BLs9Sn968SO-11">
          <mxGeometry relative="1" as="geometry" />
        </mxCell>
        <mxCell id="DJNQosZc0BLs9Sn968SO-10" value="" style="ellipse;fillColor=strokeColor;html=1;" vertex="1" parent="1">
          <mxGeometry x="567.5" y="345" width="20" height="20" as="geometry" />
        </mxCell>
        <mxCell id="DJNQosZc0BLs9Sn968SO-13" style="edgeStyle=orthogonalEdgeStyle;rounded=0;orthogonalLoop=1;jettySize=auto;html=1;exitX=0.5;exitY=1;exitDx=0;exitDy=0;entryX=0.5;entryY=0;entryDx=0;entryDy=0;" edge="1" parent="1" source="DJNQosZc0BLs9Sn968SO-11" target="DJNQosZc0BLs9Sn968SO-12">
          <mxGeometry relative="1" as="geometry" />
        </mxCell>
        <mxCell id="DJNQosZc0BLs9Sn968SO-11" value="Team Deployment" style="html=1;align=center;verticalAlign=top;rounded=1;absoluteArcSize=1;arcSize=10;dashed=0;whiteSpace=wrap;" vertex="1" parent="1">
          <mxGeometry x="587.5" y="390" width="115" height="30" as="geometry" />
        </mxCell>
        <mxCell id="DJNQosZc0BLs9Sn968SO-12" value="Passanger Managment" style="html=1;align=center;verticalAlign=top;rounded=1;absoluteArcSize=1;arcSize=10;dashed=0;whiteSpace=wrap;" vertex="1" parent="1">
          <mxGeometry x="577.5" y="440" width="135" height="30" as="geometry" />
        </mxCell>
        <mxCell id="DJNQosZc0BLs9Sn968SO-14" value="Service Re-routing" style="html=1;align=center;verticalAlign=top;rounded=1;absoluteArcSize=1;arcSize=10;dashed=0;whiteSpace=wrap;" vertex="1" parent="1">
          <mxGeometry x="584" y="490" width="122" height="30" as="geometry" />
        </mxCell>
        <mxCell id="DJNQosZc0BLs9Sn968SO-16" style="edgeStyle=orthogonalEdgeStyle;rounded=0;orthogonalLoop=1;jettySize=auto;html=1;exitX=0.5;exitY=1;exitDx=0;exitDy=0;entryX=0.562;entryY=0.03;entryDx=0;entryDy=0;entryPerimeter=0;" edge="1" parent="1" source="DJNQosZc0BLs9Sn968SO-12" target="DJNQosZc0BLs9Sn968SO-14">
          <mxGeometry relative="1" as="geometry" />
        </mxCell>
        <mxCell id="DJNQosZc0BLs9Sn968SO-17" style="edgeStyle=orthogonalEdgeStyle;rounded=0;orthogonalLoop=1;jettySize=auto;html=1;exitX=0.5;exitY=1;exitDx=0;exitDy=0;entryX=0.5;entryY=1;entryDx=0;entryDy=0;entryPerimeter=0;" edge="1" parent="1" source="DJNQosZc0BLs9Sn968SO-14" target="DJNQosZc0BLs9Sn968SO-8">
          <mxGeometry relative="1" as="geometry" />
        </mxCell>
        <mxCell id="DJNQosZc0BLs9Sn968SO-24" style="edgeStyle=orthogonalEdgeStyle;rounded=0;orthogonalLoop=1;jettySize=auto;html=1;exitX=0.5;exitY=1;exitDx=0;exitDy=0;entryX=0.5;entryY=0;entryDx=0;entryDy=0;" edge="1" parent="1" source="DJNQosZc0BLs9Sn968SO-20" target="DJNQosZc0BLs9Sn968SO-23">
          <mxGeometry relative="1" as="geometry" />
        </mxCell>
        <mxCell id="DJNQosZc0BLs9Sn968SO-25" value="Finalize Records" style="edgeLabel;html=1;align=center;verticalAlign=middle;resizable=0;points=[];" vertex="1" connectable="0" parent="DJNQosZc0BLs9Sn968SO-24">
          <mxGeometry x="0.1596" y="-3" relative="1" as="geometry">
            <mxPoint as="offset" />
          </mxGeometry>
        </mxCell>
        <mxCell id="DJNQosZc0BLs9Sn968SO-20" value="Documentation" style="html=1;align=center;verticalAlign=top;rounded=1;absoluteArcSize=1;arcSize=10;dashed=0;whiteSpace=wrap;" vertex="1" parent="1">
          <mxGeometry x="480" y="620" width="100" height="30" as="geometry" />
        </mxCell>
        <mxCell id="DJNQosZc0BLs9Sn968SO-27" style="edgeStyle=orthogonalEdgeStyle;rounded=0;orthogonalLoop=1;jettySize=auto;html=1;exitX=0.5;exitY=1;exitDx=0;exitDy=0;entryX=0.5;entryY=0;entryDx=0;entryDy=0;" edge="1" parent="1" source="DJNQosZc0BLs9Sn968SO-23" target="DJNQosZc0BLs9Sn968SO-26">
          <mxGeometry relative="1" as="geometry" />
        </mxCell>
        <mxCell id="DJNQosZc0BLs9Sn968SO-23" value="Incident Closure" style="html=1;align=center;verticalAlign=top;rounded=1;absoluteArcSize=1;arcSize=10;dashed=0;whiteSpace=wrap;" vertex="1" parent="1">
          <mxGeometry x="480" y="710" width="100" height="30" as="geometry" />
        </mxCell>
        <mxCell id="DJNQosZc0BLs9Sn968SO-26" value="" style="ellipse;html=1;shape=endState;fillColor=strokeColor;" vertex="1" parent="1">
          <mxGeometry x="515" y="790" width="30" height="30" as="geometry" />
        </mxCell>
      </root>
    </mxGraphModel>
  </diagram>
</mxfile>
